# xmcd
#
# Track frame offsets: 
#        225
#        21024
#        39054
#        55612
#        78237
#        101619
#        125106
#        143711
#        162439
#        186766
#        211125
#        231529
#
# Disc length: 3380 seconds
#
# Revision: 0
# Processed by: cddbd v1.5.2PL0 Copyright (c) Steve Scherf et al.
# Submitted via: ExactAudioCopy v0.99pb4
#
DISCID=9a0d310c
DTITLE=Trong Tan - Rang tram bau
DYEAR=2002
DGENRE=Country
TTITLE0=Gui em chiec non bai tho_Trong Tan (Le Viet Hoa)
TTITLE1=Nhip cau noi nhung bo vui_Trong Tan (Van An)
TTITLE2=Cung dan mua xuan_Trong Tan (Cao Viet Bach)
TTITLE3=Rang tram bau_Trong Tan (Thai Co)
TTITLE4=Hat ve cay lua hom nay_Trong Tan (Hoang Van)
TTITLE5=Nhung anh sao dem_Trong Tan (Phan Huynh Dieu)
TTITLE6=Tinh dat do mien Dong_Trong Tan (Tran Long An)
TTITLE7=Tren bien que huong_Trong Tan (Duc Minh)
TTITLE8=Moi anh den tham que toi_Trong Tan (Nguyen Duc Toan)
TTITLE9=Tinh yeu cua dat va nuoc_Trong Tan (Hoang Van)
TTITLE10=Hanh khuc ngay va dem_Trong Tan (Phan Huynh Dieu)
TTITLE11=Bai ca tren nui_Trong Tan (Nguyen Van Thuong_loi-To Hoai)
EXTD=
EXTT0=
EXTT1=
EXTT2=
EXTT3=
EXTT4=
EXTT5=
EXTT6=
EXTT7=
EXTT8=
EXTT9=
EXTT10=
EXTT11=
PLAYORDER=
